<svg width="24" height="24" viewBox="0 0 24 24" fill="none" xmlns="http://www.w3.org/2000/svg">
<path d="M21.8853 13.6677C20.8918 13.6677 20.0887 12.8471 20.0887 11.8319C20.0887 10.8168 20.8918 9.99616 21.8853 9.99616C21.9216 9.99616 21.958 9.99902 21.9972 10.0019V6.72493C21.9972 5.61832 21.1101 4.71187 20.0271 4.71187H3.97006C2.88709 4.71187 2 5.61546 2 6.72207V9.99902C2.03638 9.99902 2.07276 9.99331 2.11194 9.99331C3.10536 9.99331 3.90849 10.814 3.90849 11.8291C3.90849 12.8442 3.10536 13.6649 2.11194 13.6649C2.07556 13.6649 2.03918 13.662 2 13.6591V16.9361C2 18.0427 2.88709 18.9492 3.97006 18.9492H20.0299C21.1129 18.9492 22 18.0427 22 16.9361V13.6591C21.9636 13.6591 21.9272 13.6649 21.8881 13.6649L21.8853 13.6677Z" fill="url(#paint0_linear_269_2109)"/>
<path d="M11.9118 8.51246C11.9366 8.41675 12.0634 8.41675 12.0882 8.51246C12.4905 10.0845 13.6587 11.3142 15.1521 11.7377C15.2431 11.7638 15.2431 11.8972 15.1521 11.9233C13.6587 12.3468 12.4905 13.5765 12.0882 15.1486C12.0634 15.2443 11.9366 15.2443 11.9118 15.1486C11.5095 13.5765 10.3413 12.3468 8.84786 11.9233C8.75693 11.8972 8.75693 11.7638 8.84786 11.7377C10.3413 11.3142 11.5095 10.0845 11.9118 8.51246Z" fill="white"/>
<path d="M5.35228 5.41446C5.36383 5.38162 5.41579 5.38162 5.42733 5.41446C5.59763 5.96506 6.08834 6.39442 6.7176 6.54344C6.75512 6.55354 6.75512 6.599 6.7176 6.60911C6.08834 6.75812 5.59763 7.18749 5.42733 7.73809C5.41579 7.77092 5.36383 7.77092 5.35228 7.73809C5.18198 7.18749 4.69127 6.75812 4.06202 6.60911C4.02449 6.599 4.02449 6.55354 4.06202 6.54344C4.69127 6.39442 5.18198 5.96506 5.35228 5.41446Z" fill="white"/>
<path d="M5.35228 15.5875C5.36383 15.5499 5.41579 15.5499 5.42733 15.5875C5.59763 16.2167 6.08834 16.7074 6.7176 16.8777C6.75512 16.8893 6.75512 16.9412 6.7176 16.9528C6.08834 17.1231 5.59763 17.6138 5.42733 18.243C5.41579 18.2806 5.36383 18.2806 5.35228 18.243C5.18198 17.6138 4.69127 17.1231 4.06202 16.9528C4.02449 16.9412 4.02449 16.8893 4.06202 16.8777C4.69127 16.7074 5.18198 16.2167 5.35228 15.5875Z" fill="white"/>
<path d="M18.9116 5.41446C18.9232 5.38162 18.9751 5.38162 18.9867 5.41446C19.157 5.96506 19.6477 6.39442 20.2769 6.54344C20.3144 6.55354 20.3144 6.599 20.2769 6.60911C19.6477 6.75812 19.157 7.18749 18.9867 7.73809C18.9751 7.77092 18.9232 7.77092 18.9116 7.73809C18.7413 7.18749 18.2506 6.75812 17.6213 6.60911C17.5838 6.599 17.5838 6.55354 17.6213 6.54344C18.2506 6.39442 18.7413 5.96506 18.9116 5.41446Z" fill="white"/>
<path d="M18.9116 15.5875C18.9232 15.5499 18.9751 15.5499 18.9867 15.5875C19.157 16.2167 19.6477 16.7074 20.2769 16.8777C20.3144 16.8893 20.3144 16.9412 20.2769 16.9528C19.6477 17.1231 19.157 17.6138 18.9867 18.243C18.9751 18.2806 18.9232 18.2806 18.9116 18.243C18.7413 17.6138 18.2506 17.1231 17.6213 16.9528C17.5838 16.9412 17.5838 16.8893 17.6213 16.8777C18.2506 16.7074 18.7413 16.2167 18.9116 15.5875Z" fill="white"/>
<path fill-rule="evenodd" clip-rule="evenodd" d="M5.60488 15.1085C5.60488 15.9916 6.30578 16.7002 7.16158 16.7002H17.1774C18.0332 16.7002 18.7341 15.9916 18.7341 15.1085V8.2135C18.7341 7.33047 18.0332 6.62184 17.1774 6.62184H7.16158C6.30578 6.62184 5.60488 7.33047 5.60488 8.2135L5.60488 15.1085ZM7.16158 17.1303C6.06035 17.1303 5.17477 16.2211 5.17477 15.1085L5.17477 8.2135C5.17477 7.10089 6.06035 6.19173 7.16158 6.19173H17.1774C18.2786 6.19173 19.1642 7.10089 19.1642 8.2135V15.1085C19.1642 16.2211 18.2786 17.1303 17.1774 17.1303H7.16158Z" fill="white"/>
<defs>
<linearGradient id="paint0_linear_269_2109" x1="11.9958" y1="20.5533" x2="11.9958" y2="4.43736" gradientUnits="userSpaceOnUse">
<stop stop-color="#1D33CE"/>
<stop offset="1" stop-color="#8968FF"/>
</linearGradient>
</defs>
</svg>
